<svg width="120" height="35" viewBox="0 0 120 35" fill="none" xmlns="http://www.w3.org/2000/svg">
<path d="M119.252 30.648C119.252 32.4941 117.725 33.9896 115.837 33.9896H4.08555C2.19822 33.9896 0.66626 32.4941 0.66626 30.648V3.99977C0.66626 2.15448 2.19822 0.653809 4.08555 0.653809H115.836C117.725 0.653809 119.251 2.15448 119.251 3.99977L119.252 30.648Z" fill="black"/>
<path d="M115.477 0.693959C117.533 0.693959 119.207 2.32543 119.207 4.3304V30.3127C119.207 32.3177 117.533 33.9491 115.477 33.9491H4.44142C2.38504 33.9491 0.711737 32.3177 0.711737 30.3127V4.3304C0.711737 2.32543 2.38504 0.693959 4.44142 0.693959H115.477ZM115.477 1.68972e-05H4.44142C1.99975 1.68972e-05 0 1.94977 0 4.3304V30.3127C0 32.6933 1.99975 34.6431 4.44142 34.6431H115.477C117.919 34.6431 119.918 32.6933 119.918 30.3127V4.3304C119.918 1.94977 117.919 1.68972e-05 115.477 1.68972e-05Z" fill="#A6A6A6"/>
<path d="M26.7623 17.1343C26.7365 14.343 29.1065 12.985 29.2148 12.9217C27.8726 11.0138 25.7923 10.7531 25.0612 10.7323C23.314 10.553 21.6191 11.7517 20.7291 11.7517C19.8212 11.7517 18.4506 10.7496 16.9734 10.7791C15.0725 10.8076 13.2941 11.8807 12.3188 13.547C10.3059 16.9447 11.8071 21.9376 13.7356 24.6839C14.7003 26.0289 15.8275 27.5307 17.303 27.4779C18.7464 27.4199 19.2856 26.5806 21.0275 26.5806C22.7535 26.5806 23.2598 27.4779 24.7645 27.4441C26.3137 27.4199 27.289 26.093 28.22 24.7359C29.3347 23.1943 29.7824 21.676 29.8002 21.5981C29.7638 21.586 26.7916 20.48 26.7623 17.1343Z" fill="white"/>
<path d="M23.9198 8.92566C24.6961 7.97904 25.2273 6.69119 25.0799 5.38428C23.9562 5.43278 22.5509 6.14209 21.7417 7.06793C21.0257 7.88377 20.3862 9.22099 20.5514 10.4785C21.8137 10.5703 23.1097 9.85756 23.9198 8.92566Z" fill="white"/>
<path d="M47.652 27.2855H45.6347L44.5297 23.9H40.6887L39.6361 27.2855H37.6721L41.4775 15.7598H43.8279L47.652 27.2855ZM44.1966 22.4797L43.1972 19.47C43.0915 19.1626 42.8934 18.4385 42.6012 17.2988H42.5657C42.4493 17.789 42.2619 18.513 42.0043 19.47L41.0227 22.4797H44.1966V22.4797Z" fill="white"/>
<path d="M57.4381 23.0273C57.4381 24.4408 57.0464 25.558 56.2629 26.3782C55.5612 27.1083 54.6898 27.4729 53.6496 27.4729C52.5268 27.4729 51.7202 27.0797 51.229 26.2933H51.1935V30.6713H49.2997V21.71C49.2997 20.8214 49.2757 19.9094 49.2295 18.9741H50.895L51.0007 20.2914H51.0363C51.6678 19.2989 52.6263 18.8035 53.9125 18.8035C54.9181 18.8035 55.7575 19.1906 56.429 19.9657C57.1023 20.7417 57.4381 21.762 57.4381 23.0273ZM55.5088 23.0949C55.5088 22.286 55.3222 21.6191 54.9474 21.0942C54.5379 20.5469 53.988 20.2732 53.2987 20.2732C52.8315 20.2732 52.4069 20.4256 52.0276 20.7262C51.6474 21.0293 51.3987 21.4251 51.2823 21.9153C51.2237 22.1439 51.1944 22.331 51.1944 22.4782V23.864C51.1944 24.4685 51.3845 24.9786 51.7647 25.3952C52.1448 25.8118 52.6387 26.0196 53.2463 26.0196C53.9596 26.0196 54.5148 25.7511 54.9118 25.2159C55.3098 24.6798 55.5088 23.9731 55.5088 23.0949Z" fill="white"/>
<path d="M67.2422 23.0273C67.2422 24.4408 66.8504 25.558 66.0661 26.3782C65.3652 27.1083 64.4938 27.4729 63.4536 27.4729C62.3308 27.4729 61.5243 27.0797 61.0339 26.2933H60.9984V30.6713H59.1046V21.71C59.1046 20.8214 59.0806 19.9094 59.0344 18.9741H60.7L60.8057 20.2914H60.8412C61.4719 19.2989 62.4303 18.8035 63.7175 18.8035C64.7221 18.8035 65.5615 19.1906 66.2349 19.9657C66.9055 20.7417 67.2422 21.762 67.2422 23.0273ZM65.3128 23.0949C65.3128 22.286 65.1254 21.6191 64.7505 21.0942C64.341 20.5469 63.793 20.2732 63.1028 20.2732C62.6346 20.2732 62.2109 20.4256 61.8307 20.7262C61.4506 21.0293 61.2027 21.4251 61.0864 21.9153C61.0286 22.1439 60.9984 22.331 60.9984 22.4782V23.864C60.9984 24.4685 61.1885 24.9786 61.5669 25.3952C61.9471 25.8109 62.441 26.0196 63.0504 26.0196C63.7636 26.0196 64.3188 25.7511 64.7159 25.2159C65.1138 24.6798 65.3128 23.9731 65.3128 23.0949Z" fill="white"/>
<path d="M78.2035 24.0528C78.2035 25.0332 77.8544 25.8308 77.1536 26.4466C76.3835 27.1195 75.3113 27.4556 73.9336 27.4556C72.6615 27.4556 71.6418 27.2165 70.8699 26.7376L71.3087 25.1986C72.1401 25.6888 73.0524 25.9347 74.0464 25.9347C74.7597 25.9347 75.3148 25.7771 75.7137 25.4636C76.1107 25.1501 76.3088 24.7292 76.3088 24.2043C76.3088 23.7366 76.1454 23.3426 75.8176 23.023C75.4916 22.7034 74.9471 22.4064 74.1867 22.1318C72.117 21.3792 71.0831 20.2767 71.0831 18.8269C71.0831 17.8794 71.4455 17.1025 72.1712 16.498C72.8943 15.8926 73.8589 15.5903 75.0652 15.5903C76.1409 15.5903 77.0346 15.7731 77.7479 16.1377L77.2744 17.6429C76.6082 17.2896 75.8549 17.1129 75.0119 17.1129C74.3457 17.1129 73.8252 17.2731 73.4521 17.5918C73.1368 17.8768 72.9787 18.2241 72.9787 18.6355C72.9787 19.091 73.159 19.4678 73.5214 19.764C73.8367 20.0376 74.4097 20.3338 75.2411 20.6534C76.2582 21.0527 77.0053 21.5195 77.4858 22.0547C77.9646 22.5882 78.2035 23.256 78.2035 24.0528Z" fill="white"/>
<path d="M84.465 20.3598H82.3776V24.3949C82.3776 25.4212 82.7453 25.9339 83.4826 25.9339C83.821 25.9339 84.1017 25.9053 84.3238 25.8482L84.3762 27.2503C84.0031 27.3863 83.5119 27.4547 82.9035 27.4547C82.1555 27.4547 81.571 27.2321 81.1491 26.7878C80.7289 26.3427 80.5175 25.5961 80.5175 24.5473V20.3581H79.2739V18.9724H80.5175V17.4507L82.3776 16.9033V18.9724H84.465V20.3598Z" fill="white"/>
<path d="M93.8835 23.061C93.8835 24.3384 93.5087 25.3872 92.7607 26.2074C91.9764 27.0518 90.9353 27.4728 89.6375 27.4728C88.3868 27.4728 87.3911 27.0683 86.6485 26.2594C85.9058 25.4505 85.5345 24.4294 85.5345 23.1987C85.5345 21.9108 85.9165 20.8559 86.6831 20.0358C87.4479 19.2147 88.4801 18.8042 89.7779 18.8042C91.0286 18.8042 92.035 19.2087 92.7945 20.0184C93.5211 20.804 93.8835 21.8181 93.8835 23.061ZM91.9186 23.1207C91.9186 22.3542 91.7507 21.6969 91.4105 21.1487C91.0135 20.4853 90.4459 20.1544 89.7104 20.1544C88.9491 20.1544 88.3708 20.4861 87.9738 21.1487C87.6336 21.6978 87.4657 22.3655 87.4657 23.1554C87.4657 23.9218 87.6336 24.5792 87.9738 25.1266C88.3833 25.79 88.9553 26.1208 89.6935 26.1208C90.4165 26.1208 90.9842 25.783 91.3937 25.1092C91.7428 24.5506 91.9186 23.8863 91.9186 23.1207Z" fill="white"/>
<path d="M100.039 20.598C99.8519 20.5642 99.6521 20.5469 99.4424 20.5469C98.7762 20.5469 98.261 20.792 97.8986 21.283C97.5832 21.7161 97.4251 22.2634 97.4251 22.9243V27.285H95.5322L95.5499 21.5914C95.5499 20.6335 95.526 19.7613 95.4789 18.9749H97.1284L97.1977 20.5651H97.2501C97.45 20.0186 97.7653 19.5786 98.197 19.2486C98.619 18.9516 99.0747 18.8035 99.5659 18.8035C99.7409 18.8035 99.899 18.8156 100.039 18.8372V20.598Z" fill="white"/>
<path d="M108.509 22.7363C108.509 23.0671 108.487 23.346 108.44 23.5738H102.758C102.781 24.3948 103.055 25.0227 103.583 25.4558C104.061 25.8429 104.681 26.0369 105.441 26.0369C106.282 26.0369 107.05 25.9061 107.74 25.6437L108.037 26.9255C107.23 27.2685 106.278 27.4391 105.179 27.4391C103.857 27.4391 102.82 27.0597 102.065 26.3019C101.311 25.5441 100.934 24.5265 100.934 23.2499C100.934 21.9967 101.285 20.953 101.987 20.1207C102.723 19.2321 103.717 18.7878 104.968 18.7878C106.196 18.7878 107.126 19.2321 107.758 20.1207C108.258 20.8266 108.509 21.6996 108.509 22.7363ZM106.703 22.2573C106.716 21.71 106.592 21.2371 106.335 20.8378C106.008 20.3243 105.504 20.0679 104.826 20.0679C104.207 20.0679 103.704 20.3182 103.319 20.8205C103.004 21.2198 102.816 21.6987 102.758 22.2565H106.703V22.2573Z" fill="white"/>
<path d="M43.5703 8.6686C43.5703 9.68797 43.2567 10.4553 42.6305 10.9706C42.0504 11.4461 41.2261 11.6843 40.1584 11.6843C39.629 11.6843 39.1759 11.6618 38.7966 11.6167V6.04699C39.2914 5.96904 39.8244 5.9292 40.4 5.9292C41.4171 5.9292 42.1837 6.14485 42.7006 6.57616C43.2798 7.06376 43.5703 7.76095 43.5703 8.6686ZM42.5887 8.69372C42.5887 8.0329 42.4093 7.52624 42.0504 7.17288C41.6916 6.82039 41.1675 6.64371 40.4773 6.64371C40.1841 6.64371 39.9345 6.66277 39.7276 6.70261V10.9369C39.8421 10.9542 40.0518 10.962 40.3565 10.962C41.0689 10.962 41.6187 10.7688 42.006 10.3826C42.3933 9.99629 42.5887 9.43334 42.5887 8.69372Z" fill="white"/>
<path d="M48.7747 9.55872C48.7747 10.1866 48.5908 10.7011 48.223 11.1047C47.8375 11.5195 47.3268 11.7265 46.689 11.7265C46.0743 11.7265 45.5848 11.5282 45.2198 11.1298C44.8556 10.7323 44.6735 10.2308 44.6735 9.62628C44.6735 8.99404 44.8609 8.47526 45.2375 8.07254C45.6142 7.66981 46.1205 7.46802 46.7583 7.46802C47.373 7.46802 47.8668 7.66635 48.2408 8.06388C48.5961 8.45015 48.7747 8.94901 48.7747 9.55872ZM47.8091 9.58817C47.8091 9.21143 47.7256 8.88838 47.5595 8.61903C47.3641 8.29339 47.086 8.13057 46.7245 8.13057C46.3505 8.13057 46.0663 8.29339 45.8709 8.61903C45.7039 8.88838 45.6213 9.21663 45.6213 9.60463C45.6213 9.98137 45.7048 10.3044 45.8709 10.5738C46.0725 10.8994 46.3532 11.0622 46.7156 11.0622C47.0709 11.0622 47.3499 10.8968 47.5506 10.5651C47.7229 10.2906 47.8091 9.96491 47.8091 9.58817Z" fill="white"/>
<path d="M55.7531 7.55127L54.4429 11.634H53.5902L53.0474 9.86109C52.9097 9.41853 52.7978 8.97856 52.7108 8.54206H52.6939C52.613 8.99069 52.5011 9.42979 52.3572 9.86109L51.7807 11.634H50.9182L49.6862 7.55127H50.6428L51.1163 9.49215C51.2309 9.95117 51.325 10.3885 51.4005 10.8025H51.4174C51.4867 10.4613 51.6013 10.0265 51.763 9.50081L52.3572 7.55214H53.1158L53.6852 9.45924C53.8229 9.92432 53.9348 10.3721 54.021 10.8034H54.0467C54.1098 10.3833 54.2049 9.93558 54.331 9.45924L54.8391 7.55214H55.7531V7.55127Z" fill="white"/>
<path d="M60.5791 11.634H59.6482V9.2956C59.6482 8.57502 59.3674 8.21473 58.8043 8.21473C58.528 8.21473 58.3051 8.31347 58.1319 8.5118C57.9604 8.71013 57.8734 8.94397 57.8734 9.21159V11.6331H56.9424V8.71792C56.9424 8.35937 56.9309 7.9705 56.9087 7.54959H57.7268L57.7703 8.18788H57.7961C57.9045 7.98955 58.0661 7.82586 58.2784 7.69509C58.5307 7.54266 58.8132 7.46558 59.1223 7.46558C59.5131 7.46558 59.8382 7.58856 60.0967 7.83539C60.4183 8.13765 60.5791 8.58888 60.5791 9.1882V11.634V11.634Z" fill="white"/>
<path d="M63.1462 11.634H62.2162V5.67798H63.1462V11.634Z" fill="white"/>
<path d="M68.627 9.55872C68.627 10.1866 68.4431 10.7011 68.0753 11.1047C67.6898 11.5195 67.1782 11.7265 66.5413 11.7265C65.9257 11.7265 65.4362 11.5282 65.072 11.1298C64.7079 10.7323 64.5258 10.2308 64.5258 9.62628C64.5258 8.99404 64.7132 8.47526 65.0898 8.07254C65.4665 7.66981 65.9728 7.46802 66.6097 7.46802C67.2253 7.46802 67.7182 7.66635 68.0931 8.06388C68.4484 8.45015 68.627 8.94901 68.627 9.55872ZM67.6605 9.58817C67.6605 9.21143 67.577 8.88838 67.4109 8.61903C67.2164 8.29339 66.9374 8.13057 66.5768 8.13057C66.2019 8.13057 65.9177 8.29339 65.7232 8.61903C65.5562 8.88838 65.4736 9.21663 65.4736 9.60463C65.4736 9.98137 65.5571 10.3044 65.7232 10.5738C65.9248 10.8994 66.2055 11.0622 66.5679 11.0622C66.9232 11.0622 67.2013 10.8968 67.402 10.5651C67.5752 10.2906 67.6605 9.96491 67.6605 9.58817Z" fill="white"/>
<path d="M73.1324 11.6338H72.2965L72.2272 11.1636H72.2014C71.9154 11.5386 71.5077 11.7265 70.9783 11.7265C70.583 11.7265 70.2632 11.6027 70.0225 11.3567C69.804 11.1333 69.6947 10.8552 69.6947 10.5253C69.6947 10.0264 69.9079 9.6462 70.3369 9.38291C70.7651 9.11962 71.3673 8.99058 72.1428 8.99664V8.92043C72.1428 8.38259 71.8532 8.11411 71.2732 8.11411C70.8601 8.11411 70.4959 8.21544 70.1815 8.41637L69.9923 7.82051C70.3813 7.5858 70.8619 7.46802 71.4286 7.46802C72.523 7.46802 73.072 8.03097 73.072 9.15687V10.6604C73.072 11.0683 73.0924 11.3931 73.1324 11.6338ZM72.1659 10.2308V9.60116C71.139 9.58384 70.6256 9.85839 70.6256 10.4239C70.6256 10.637 70.6842 10.7963 70.8042 10.9029C70.9241 11.0094 71.0769 11.0622 71.259 11.0622C71.4633 11.0622 71.6543 10.999 71.8284 10.8734C72.0033 10.747 72.1108 10.5868 72.1508 10.3902C72.1606 10.346 72.1659 10.2923 72.1659 10.2308Z" fill="white"/>
<path d="M78.4221 11.634H77.596L77.5524 10.9784H77.5267C77.2629 11.4772 76.8134 11.7267 76.1818 11.7267C75.6773 11.7267 75.2571 11.5335 74.924 11.1473C74.5909 10.761 74.4248 10.2595 74.4248 9.64374C74.4248 8.98293 74.6051 8.44769 74.9675 8.0389C75.3184 7.65783 75.7483 7.46729 76.26 7.46729C76.8223 7.46729 77.2158 7.65177 77.4396 8.02158H77.4574V5.67798H78.3892V10.5341C78.3892 10.9316 78.3999 11.2979 78.4221 11.634ZM77.4574 9.91223V9.23149C77.4574 9.1137 77.4485 9.01843 77.4316 8.94568C77.3792 8.72743 77.2664 8.54382 77.095 8.39573C76.9218 8.24763 76.713 8.17314 76.4723 8.17314C76.125 8.17314 75.8532 8.30739 75.6533 8.57674C75.4552 8.84609 75.3548 9.18992 75.3548 9.60996C75.3548 10.0136 75.4499 10.3409 75.6409 10.593C75.8425 10.8614 76.1143 10.9957 76.4545 10.9957C76.7601 10.9957 77.0044 10.884 77.19 10.6596C77.3695 10.4527 77.4574 10.2032 77.4574 9.91223Z" fill="white"/>
<path d="M86.3837 9.55872C86.3837 10.1866 86.1998 10.7011 85.832 11.1047C85.4465 11.5195 84.9367 11.7265 84.298 11.7265C83.6842 11.7265 83.1947 11.5282 82.8288 11.1298C82.4646 10.7323 82.2825 10.2308 82.2825 9.62628C82.2825 8.99404 82.4699 8.47526 82.8465 8.07254C83.2232 7.66981 83.7295 7.46802 84.3682 7.46802C84.982 7.46802 85.4767 7.66635 85.8498 8.06388C86.2051 8.45015 86.3837 8.94901 86.3837 9.55872ZM85.419 9.58817C85.419 9.21143 85.3355 8.88838 85.1694 8.61903C84.9731 8.29339 84.6959 8.13057 84.3335 8.13057C83.9604 8.13057 83.6762 8.29339 83.4799 8.61903C83.3129 8.88838 83.2303 9.21663 83.2303 9.60463C83.2303 9.98137 83.3138 10.3044 83.4799 10.5738C83.6815 10.8994 83.9622 11.0622 84.3246 11.0622C84.6799 11.0622 84.9598 10.8968 85.1605 10.5651C85.3319 10.2906 85.419 9.96491 85.419 9.58817Z" fill="white"/>
<path d="M91.3892 11.634H90.4592V9.2956C90.4592 8.57502 90.1785 8.21473 89.6144 8.21473C89.3382 8.21473 89.1152 8.31347 88.9429 8.5118C88.7706 8.71013 88.6844 8.94397 88.6844 9.21159V11.6331H87.7526V8.71792C87.7526 8.35937 87.7419 7.9705 87.7197 7.54959H88.5369L88.5805 8.18788H88.6062C88.7155 7.98955 88.8772 7.82586 89.0886 7.69509C89.3417 7.54266 89.6233 7.46558 89.9333 7.46558C90.3233 7.46558 90.6484 7.58856 90.9069 7.83539C91.2293 8.13765 91.3892 8.58888 91.3892 9.1882V11.634V11.634Z" fill="white"/>
<path d="M97.6543 8.23107H96.6292V10.2144C96.6292 10.7184 96.8113 10.9705 97.1719 10.9705C97.3389 10.9705 97.4775 10.9566 97.5868 10.928L97.6107 11.6166C97.4269 11.6841 97.1852 11.7179 96.8877 11.7179C96.5199 11.7179 96.2339 11.6088 96.0269 11.3905C95.8191 11.1723 95.716 10.805 95.716 10.2897V8.23107H95.104V7.5512H95.716V6.80291L96.6283 6.53442V7.55033H97.6534V8.23107H97.6543Z" fill="white"/>
<path d="M102.582 11.634H101.651V9.3129C101.651 8.58107 101.37 8.21472 100.808 8.21472C100.376 8.21472 100.081 8.4269 99.9194 8.85128C99.8918 8.94049 99.8758 9.04961 99.8758 9.17779V11.6331H98.9458V5.67798H99.8758V8.1385H99.8936C100.187 7.69074 100.607 7.46729 101.151 7.46729C101.537 7.46729 101.856 7.59027 102.109 7.83711C102.424 8.14456 102.582 8.60185 102.582 9.20637V11.634V11.634Z" fill="white"/>
<path d="M107.666 9.39935C107.666 9.56217 107.654 9.69901 107.632 9.81074H104.84C104.852 10.2143 104.985 10.5218 105.244 10.7348C105.48 10.9254 105.785 11.0206 106.158 11.0206C106.571 11.0206 106.948 10.9566 107.287 10.8275L107.433 11.458C107.035 11.626 106.568 11.71 106.027 11.71C105.379 11.71 104.868 11.5238 104.499 11.1514C104.127 10.779 103.943 10.2793 103.943 9.65224C103.943 9.03646 104.115 8.52375 104.46 8.11496C104.821 7.67846 105.309 7.46021 105.924 7.46021C106.526 7.46021 106.984 7.67846 107.293 8.11496C107.543 8.46139 107.666 8.8901 107.666 9.39935ZM106.778 9.16464C106.785 8.89529 106.724 8.66318 106.598 8.46745C106.436 8.21542 106.19 8.08898 105.857 8.08898C105.553 8.08898 105.305 8.21196 105.116 8.45879C104.961 8.65539 104.87 8.8901 104.84 9.16464H106.778Z" fill="white"/>
</svg>
