<svg width="19" height="23" viewBox="0 0 19 23" fill="none" xmlns="http://www.w3.org/2000/svg">
<path d="M15.7623 12.1343C15.7365 9.34297 18.1065 7.98496 18.2148 7.92174C16.8726 6.01377 14.7923 5.75308 14.0612 5.7323C12.314 5.55302 10.6191 6.75167 9.72906 6.75167C8.82123 6.75167 7.45061 5.74962 5.9734 5.77907C4.07247 5.80765 2.29413 6.88071 1.31879 8.54705C-0.694057 11.9447 0.807142 16.9376 2.73561 19.6839C3.70028 21.0289 4.82751 22.5307 6.30295 22.4779C7.74641 22.4199 8.2856 21.5806 10.0275 21.5806C11.7535 21.5806 12.2598 22.4779 13.7645 22.4441C15.3137 22.4199 16.289 21.093 17.22 19.7359C18.3347 18.1943 18.7824 16.676 18.8002 16.5981C18.7638 16.586 15.7916 15.48 15.7623 12.1343Z" fill="white"/>
<path d="M12.9198 3.92566C13.6961 2.97904 14.2273 1.69119 14.0799 0.384277C12.9562 0.432778 11.5509 1.14209 10.7417 2.06793C10.0257 2.88377 9.38618 4.22099 9.5514 5.47854C10.8137 5.57034 12.1097 4.85756 12.9198 3.92566Z" fill="white"/>
</svg>
