<svg width="120" height="35" viewBox="0 0 120 35" fill="none" xmlns="http://www.w3.org/2000/svg">
<path d="M115.565 35H4.68189C2.24358 35 0.246582 33.0502 0.246582 30.6696V4.68733C0.246582 2.30671 2.24358 0.356953 4.68189 0.356953H115.565C118.003 0.356953 120 2.30671 120 4.68733V30.6696C120 33.0502 118.003 35 115.565 35Z" fill="black"/>
<path d="M115.565 1.0509C117.618 1.0509 119.289 2.68237 119.289 4.68733V30.6696C119.289 32.6746 117.618 34.3061 115.565 34.3061H4.68189C2.62834 34.3061 0.95734 32.6746 0.95734 30.6696V4.68733C0.95734 2.68237 2.62834 1.0509 4.68189 1.0509H115.565ZM115.565 0.356953H4.68189C2.24358 0.356953 0.246582 2.30671 0.246582 4.68733V30.6696C0.246582 33.0502 2.24358 35 4.68189 35H115.565C118.003 35 120 33.0502 120 30.6696V4.68733C120 2.30671 118.003 0.356953 115.565 0.356953Z" fill="#A6A6A6"/>
<path d="M42.3089 9.22874C42.3089 9.95192 42.0871 10.5311 41.6502 10.9631C41.1479 11.4751 40.4937 11.7328 39.692 11.7328C38.9258 11.7328 38.2716 11.4708 37.7349 10.9544C37.1972 10.4304 36.9288 9.78736 36.9288 9.01764C36.9288 8.24791 37.1972 7.60485 37.7349 7.08521C38.2716 6.56448 38.9258 6.30249 39.692 6.30249C40.0735 6.30249 40.4372 6.37935 40.7842 6.52226C41.1302 6.66624 41.4118 6.86111 41.6158 7.10145L41.1524 7.5583C40.7964 7.148 40.3119 6.94555 39.692 6.94555C39.1332 6.94555 38.6486 7.13609 38.2373 7.52041C37.8303 7.90581 37.6263 8.40489 37.6263 9.01764C37.6263 9.63039 37.8303 10.1338 38.2373 10.5192C38.6486 10.8992 39.1332 11.0941 39.692 11.0941C40.2853 11.0941 40.7842 10.8992 41.1779 10.5149C41.4373 10.2605 41.5848 9.9097 41.6236 9.4615H39.692V8.83576H42.2689C42.3 8.97109 42.3089 9.10208 42.3089 9.22874V9.22874Z" fill="white" stroke="white" stroke-width="0.106594" stroke-miterlimit="10"/>
<path d="M46.3971 7.05928H43.9765V8.70482H46.1587V9.33056H43.9765V10.9761H46.3971V11.6138H43.2913V6.42163H46.3971V7.05928Z" fill="white" stroke="white" stroke-width="0.106594" stroke-miterlimit="10"/>
<path d="M49.2823 11.6138H48.597V7.05928H47.1123V6.42163H50.7681V7.05928H49.2823V11.6138V11.6138Z" fill="white" stroke="white" stroke-width="0.106594" stroke-miterlimit="10"/>
<path d="M53.4138 11.6138V6.42163H54.098V11.6138H53.4138Z" fill="white" stroke="white" stroke-width="0.106594" stroke-miterlimit="10"/>
<path d="M57.1305 11.6138H56.4508V7.05928H54.9606V6.42163H58.6208V7.05928H57.1305V11.6138Z" fill="white" stroke="white" stroke-width="0.106594" stroke-miterlimit="10"/>
<path d="M65.5421 10.9457C65.0176 11.4708 64.3679 11.7328 63.5928 11.7328C62.8133 11.7328 62.1635 11.4708 61.639 10.9457C61.1157 10.4218 60.8551 9.7787 60.8551 9.01764C60.8551 8.25657 61.1157 7.61351 61.639 7.08954C62.1635 6.56448 62.8133 6.30249 63.5928 6.30249C64.3634 6.30249 65.0132 6.56448 65.5377 7.09387C66.0655 7.62217 66.3261 8.2609 66.3261 9.01764C66.3261 9.7787 66.0655 10.4218 65.5421 10.9457ZM62.1458 10.5105C62.5405 10.8992 63.0206 11.0941 63.5928 11.0941C64.1605 11.0941 64.6451 10.8992 65.0354 10.5105C65.429 10.1219 65.6286 9.62281 65.6286 9.01764C65.6286 8.41247 65.429 7.91339 65.0354 7.52474C64.6451 7.13609 64.1605 6.94122 63.5928 6.94122C63.0206 6.94122 62.5405 7.13609 62.1458 7.52474C61.7521 7.91339 61.5526 8.41247 61.5526 9.01764C61.5526 9.62281 61.7521 10.1219 62.1458 10.5105V10.5105Z" fill="white" stroke="white" stroke-width="0.106594" stroke-miterlimit="10"/>
<path d="M67.2875 11.6138V6.42163H68.1191L70.7049 10.4597H70.7348L70.7049 9.46156V6.42163H71.389V11.6138H70.6749L67.9672 7.37648H67.9372L67.9672 8.37896V11.6138H67.2875V11.6138Z" fill="white" stroke="white" stroke-width="0.106594" stroke-miterlimit="10"/>
<path d="M60.6866 19.1962C58.6031 19.1962 56.901 20.7443 56.901 22.8803C56.901 24.9989 58.6031 26.5633 60.6866 26.5633C62.7745 26.5633 64.4765 24.9989 64.4765 22.8803C64.4765 20.7443 62.7745 19.1962 60.6866 19.1962ZM60.6866 25.1126C59.5434 25.1126 58.5598 24.1913 58.5598 22.8803C58.5598 21.5519 59.5434 20.6469 60.6866 20.6469C61.8298 20.6469 62.8177 21.5519 62.8177 22.8803C62.8177 24.1913 61.8298 25.1126 60.6866 25.1126V25.1126ZM52.4269 19.1962C50.339 19.1962 48.6414 20.7443 48.6414 22.8803C48.6414 24.9989 50.339 26.5633 52.4269 26.5633C54.5137 26.5633 56.2124 24.9989 56.2124 22.8803C56.2124 20.7443 54.5137 19.1962 52.4269 19.1962ZM52.4269 25.1126C51.2826 25.1126 50.2957 24.1913 50.2957 22.8803C50.2957 21.5519 51.2826 20.6469 52.4269 20.6469C53.5701 20.6469 54.5536 21.5519 54.5536 22.8803C54.5536 24.1913 53.5701 25.1126 52.4269 25.1126ZM42.5983 20.3254V21.8908H46.427C46.315 22.7655 46.0157 23.4086 45.5566 23.8568C44.9978 24.3981 44.1273 24.9989 42.5983 24.9989C40.242 24.9989 38.3969 23.1423 38.3969 20.8418C38.3969 18.5412 40.242 16.6846 42.5983 16.6846C43.8723 16.6846 44.7993 17.1707 45.4834 17.8008L46.6133 16.6976C45.6564 15.8055 44.3835 15.1202 42.5983 15.1202C39.3671 15.1202 36.6516 17.6871 36.6516 20.8418C36.6516 23.9964 39.3671 26.5633 42.5983 26.5633C44.3447 26.5633 45.6564 26.0047 46.6876 24.9567C47.7443 23.925 48.0736 22.4743 48.0736 21.3029C48.0736 20.9392 48.0426 20.6047 47.9872 20.3254H42.5983ZM82.7888 21.539C82.4772 20.7151 81.5159 19.1962 79.5577 19.1962C77.6172 19.1962 76.0017 20.6891 76.0017 22.8803C76.0017 24.9437 77.6006 26.5633 79.744 26.5633C81.4771 26.5633 82.4772 25.5316 82.8886 24.9307L81.6024 24.0939C81.1733 24.7066 80.5889 25.1126 79.744 25.1126C78.9046 25.1126 78.3025 24.7369 77.9166 23.9964L82.9629 21.9579L82.7888 21.539V21.539ZM77.6439 22.7655C77.6006 21.3452 78.7738 20.6177 79.6142 20.6177C80.2729 20.6177 80.8317 20.9392 81.018 21.3993L77.6439 22.7655V22.7655ZM73.5423 26.3392H75.2011V15.5132H73.5423V26.3392ZM70.8257 20.0168H70.7702C70.3977 19.586 69.6869 19.1962 68.7865 19.1962C66.8971 19.1962 65.1695 20.8158 65.1695 22.8922C65.1695 24.9567 66.8971 26.5633 68.7865 26.5633C69.6869 26.5633 70.3977 26.1703 70.7702 25.7264H70.8257V26.2547C70.8257 27.6632 70.055 28.4199 68.812 28.4199C67.7986 28.4199 67.1699 27.7054 66.9104 27.1046L65.4678 27.6924C65.8836 28.6689 66.9847 29.8706 68.812 29.8706C70.7569 29.8706 72.398 28.7534 72.398 26.035V19.4203H70.8257V20.0168V20.0168ZM68.9285 25.1126C67.7853 25.1126 66.8283 24.1783 66.8283 22.8922C66.8283 21.5942 67.7853 20.6469 68.9285 20.6469C70.055 20.6469 70.9432 21.5942 70.9432 22.8922C70.9432 24.1783 70.055 25.1126 68.9285 25.1126V25.1126ZM90.555 15.5132H86.5877V26.3392H88.242V22.2372H90.555C92.3924 22.2372 94.1942 20.9392 94.1942 18.8747C94.1942 16.8113 92.3879 15.5132 90.555 15.5132V15.5132ZM90.5983 20.7313H88.242V17.0191H90.5983C91.8335 17.0191 92.5387 18.0205 92.5387 18.8747C92.5387 19.7126 91.8335 20.7313 90.5983 20.7313ZM100.825 19.1756C99.6297 19.1756 98.3867 19.691 97.8755 20.8331L99.3436 21.4339C99.6596 20.8331 100.241 20.6382 100.855 20.6382C101.713 20.6382 102.584 21.1416 102.597 22.0305V22.1441C102.298 21.9752 101.657 21.7252 100.868 21.7252C99.2871 21.7252 97.6759 22.575 97.6759 24.161C97.6759 25.6117 98.971 26.546 100.427 26.546C101.54 26.546 102.154 26.0555 102.54 25.485H102.597V26.3219H104.195V22.169C104.195 20.2496 102.727 19.1756 100.825 19.1756ZM100.625 25.1083C100.084 25.1083 99.3303 24.8463 99.3303 24.1913C99.3303 23.3534 100.271 23.0319 101.084 23.0319C101.813 23.0319 102.154 23.1888 102.597 23.3956C102.467 24.3981 101.583 25.1083 100.625 25.1083V25.1083ZM110.016 19.4127L108.114 24.1058H108.058L106.092 19.4127H104.308L107.262 25.9711L105.576 29.6205H107.305L111.857 19.4127H110.016V19.4127ZM95.1035 26.3392H96.7623V15.5132H95.1035V26.3392Z" fill="white"/>
<path d="M9.50305 6.88611C9.24247 7.15243 9.09167 7.56707 9.09167 8.10403V27.2573C9.09167 27.7943 9.24247 28.2089 9.50305 28.4752L9.56736 28.5337L20.5603 17.8052V17.5518L9.56736 6.82332L9.50305 6.88611Z" fill="url(#paint0_linear_1026:9367)"/>
<path d="M24.2205 21.3831L20.5603 17.8051V17.5518L24.225 13.9738L24.307 14.0203L28.647 16.4313C29.8855 17.1155 29.8855 18.2414 28.647 18.9299L24.307 21.3365L24.2205 21.3831V21.3831Z" fill="url(#paint1_linear_1026:9367)"/>
<path d="M24.307 21.3367L20.5603 17.6786L9.50305 28.4754C9.91443 28.8976 10.5853 28.9485 11.3481 28.5262L24.307 21.3367" fill="url(#paint2_linear_1026:9367)"/>
<path d="M24.307 14.0204L11.3481 6.83086C10.5853 6.41298 9.91443 6.46386 9.50305 6.88608L20.5603 17.6785L24.307 14.0204Z" fill="url(#paint3_linear_1026:9367)"/>
<defs>
<linearGradient id="paint0_linear_1026:9367" x1="19.5842" y1="27.4568" x2="5.05357" y2="12.574" gradientUnits="userSpaceOnUse">
<stop stop-color="#00A0FF"/>
<stop offset="0.0066" stop-color="#00A1FF"/>
<stop offset="0.2601" stop-color="#00BEFF"/>
<stop offset="0.5122" stop-color="#00D2FF"/>
<stop offset="0.7604" stop-color="#00DFFF"/>
<stop offset="1" stop-color="#00E3FF"/>
</linearGradient>
<linearGradient id="paint1_linear_1026:9367" x1="30.2598" y1="17.6772" x2="8.79564" y2="17.6772" gradientUnits="userSpaceOnUse">
<stop stop-color="#FFE000"/>
<stop offset="0.4087" stop-color="#FFBD00"/>
<stop offset="0.7754" stop-color="#FFA500"/>
<stop offset="1" stop-color="#FF9C00"/>
</linearGradient>
<linearGradient id="paint2_linear_1026:9367" x1="22.2697" y1="15.69" x2="2.56488" y2="-4.49221" gradientUnits="userSpaceOnUse">
<stop stop-color="#FF3A44"/>
<stop offset="1" stop-color="#C31162"/>
</linearGradient>
<linearGradient id="paint3_linear_1026:9367" x1="6.71972" y1="34.8474" x2="15.5188" y2="25.8352" gradientUnits="userSpaceOnUse">
<stop stop-color="#32A071"/>
<stop offset="0.0685" stop-color="#2DA771"/>
<stop offset="0.4762" stop-color="#15CF74"/>
<stop offset="0.8009" stop-color="#06E775"/>
<stop offset="1" stop-color="#00F076"/>
</linearGradient>
</defs>
</svg>
