<svg width="85" height="85" viewBox="0 0 85 85" fill="none" xmlns="http://www.w3.org/2000/svg">
<rect width="85" height="85" rx="4" fill="white"/>
<path d="M2.42859 2.42822H4.85716V4.85679H2.42859V2.42822ZM4.85716 2.42822H7.28573V4.85679H4.85716V2.42822ZM7.28573 2.42822H9.7143V4.85679H7.28573V2.42822ZM9.7143 2.42822H12.1429V4.85679H9.7143V2.42822ZM12.1429 2.42822H14.5714V4.85679H12.1429V2.42822ZM14.5714 2.42822H17V4.85679H14.5714V2.42822ZM17 2.42822H19.4286V4.85679H17V2.42822ZM21.8572 2.42822H24.2857V4.85679H21.8572V2.42822ZM24.2857 2.42822H26.7143V4.85679H24.2857V2.42822ZM29.1429 2.42822H31.5714V4.85679H29.1429V2.42822ZM36.4286 2.42822H38.8572V4.85679H36.4286V2.42822ZM38.8572 2.42822H41.2857V4.85679H38.8572V2.42822ZM46.1429 2.42822H48.5714V4.85679H46.1429V2.42822ZM48.5714 2.42822H51V4.85679H48.5714V2.42822ZM51 2.42822H53.4286V4.85679H51V2.42822ZM58.2857 2.42822H60.7143V4.85679H58.2857V2.42822ZM65.5714 2.42822H68V4.85679H65.5714V2.42822ZM68 2.42822H70.4286V4.85679H68V2.42822ZM70.4286 2.42822H72.8572V4.85679H70.4286V2.42822ZM72.8572 2.42822H75.2857V4.85679H72.8572V2.42822ZM75.2857 2.42822H77.7143V4.85679H75.2857V2.42822ZM77.7143 2.42822H80.1429V4.85679H77.7143V2.42822ZM80.1429 2.42822H82.5714V4.85679H80.1429V2.42822ZM2.42859 4.85679H4.85716V7.28537H2.42859V4.85679ZM17 4.85679H19.4286V7.28537H17V4.85679ZM34 4.85679H36.4286V7.28537H34V4.85679ZM43.7143 4.85679H46.1429V7.28537H43.7143V4.85679ZM51 4.85679H53.4286V7.28537H51V4.85679ZM53.4286 4.85679H55.8572V7.28537H53.4286V4.85679ZM55.8572 4.85679H58.2857V7.28537H55.8572V4.85679ZM58.2857 4.85679H60.7143V7.28537H58.2857V4.85679ZM60.7143 4.85679H63.1429V7.28537H60.7143V4.85679ZM65.5714 4.85679H68V7.28537H65.5714V4.85679ZM80.1429 4.85679H82.5714V7.28537H80.1429V4.85679ZM2.42859 7.28537H4.85716V9.71394H2.42859V7.28537ZM7.28573 7.28537H9.7143V9.71394H7.28573V7.28537ZM9.7143 7.28537H12.1429V9.71394H9.7143V7.28537ZM12.1429 7.28537H14.5714V9.71394H12.1429V7.28537ZM17 7.28537H19.4286V9.71394H17V7.28537ZM21.8572 7.28537H24.2857V9.71394H21.8572V7.28537ZM26.7143 7.28537H29.1429V9.71394H26.7143V7.28537ZM31.5714 7.28537H34V9.71394H31.5714V7.28537ZM34 7.28537H36.4286V9.71394H34V7.28537ZM41.2857 7.28537H43.7143V9.71394H41.2857V7.28537ZM43.7143 7.28537H46.1429V9.71394H43.7143V7.28537ZM51 7.28537H53.4286V9.71394H51V7.28537ZM58.2857 7.28537H60.7143V9.71394H58.2857V7.28537ZM60.7143 7.28537H63.1429V9.71394H60.7143V7.28537ZM65.5714 7.28537H68V9.71394H65.5714V7.28537ZM70.4286 7.28537H72.8572V9.71394H70.4286V7.28537ZM72.8572 7.28537H75.2857V9.71394H72.8572V7.28537ZM75.2857 7.28537H77.7143V9.71394H75.2857V7.28537ZM80.1429 7.28537H82.5714V9.71394H80.1429V7.28537ZM2.42859 9.71394H4.85716V12.1425H2.42859V9.71394ZM7.28573 9.71394H9.7143V12.1425H7.28573V9.71394ZM9.7143 9.71394H12.1429V12.1425H9.7143V9.71394ZM12.1429 9.71394H14.5714V12.1425H12.1429V9.71394ZM17 9.71394H19.4286V12.1425H17V9.71394ZM21.8572 9.71394H24.2857V12.1425H21.8572V9.71394ZM24.2857 9.71394H26.7143V12.1425H24.2857V9.71394ZM26.7143 9.71394H29.1429V12.1425H26.7143V9.71394ZM36.4286 9.71394H38.8572V12.1425H36.4286V9.71394ZM43.7143 9.71394H46.1429V12.1425H43.7143V9.71394ZM53.4286 9.71394H55.8572V12.1425H53.4286V9.71394ZM58.2857 9.71394H60.7143V12.1425H58.2857V9.71394ZM65.5714 9.71394H68V12.1425H65.5714V9.71394ZM70.4286 9.71394H72.8572V12.1425H70.4286V9.71394ZM72.8572 9.71394H75.2857V12.1425H72.8572V9.71394ZM75.2857 9.71394H77.7143V12.1425H75.2857V9.71394ZM80.1429 9.71394H82.5714V12.1425H80.1429V9.71394ZM2.42859 12.1425H4.85716V14.5711H2.42859V12.1425ZM7.28573 12.1425H9.7143V14.5711H7.28573V12.1425ZM9.7143 12.1425H12.1429V14.5711H9.7143V12.1425ZM12.1429 12.1425H14.5714V14.5711H12.1429V12.1425ZM17 12.1425H19.4286V14.5711H17V12.1425ZM24.2857 12.1425H26.7143V14.5711H24.2857V12.1425ZM29.1429 12.1425H31.5714V14.5711H29.1429V12.1425ZM31.5714 12.1425H34V14.5711H31.5714V12.1425ZM38.8572 12.1425H41.2857V14.5711H38.8572V12.1425ZM41.2857 12.1425H43.7143V14.5711H41.2857V12.1425ZM43.7143 12.1425H46.1429V14.5711H43.7143V12.1425ZM48.5714 12.1425H51V14.5711H48.5714V12.1425ZM55.8572 12.1425H58.2857V14.5711H55.8572V12.1425ZM65.5714 12.1425H68V14.5711H65.5714V12.1425ZM70.4286 12.1425H72.8572V14.5711H70.4286V12.1425ZM72.8572 12.1425H75.2857V14.5711H72.8572V12.1425ZM75.2857 12.1425H77.7143V14.5711H75.2857V12.1425ZM80.1429 12.1425H82.5714V14.5711H80.1429V12.1425ZM2.42859 14.5711H4.85716V16.9997H2.42859V14.5711ZM17 14.5711H19.4286V16.9997H17V14.5711ZM21.8572 14.5711H24.2857V16.9997H21.8572V14.5711ZM26.7143 14.5711H29.1429V16.9997H26.7143V14.5711ZM31.5714 14.5711H34V16.9997H31.5714V14.5711ZM36.4286 14.5711H38.8572V16.9997H36.4286V14.5711ZM43.7143 14.5711H46.1429V16.9997H43.7143V14.5711ZM46.1429 14.5711H48.5714V16.9997H46.1429V14.5711ZM51 14.5711H53.4286V16.9997H51V14.5711ZM53.4286 14.5711H55.8572V16.9997H53.4286V14.5711ZM58.2857 14.5711H60.7143V16.9997H58.2857V14.5711ZM65.5714 14.5711H68V16.9997H65.5714V14.5711ZM80.1429 14.5711H82.5714V16.9997H80.1429V14.5711ZM2.42859 16.9997H4.85716V19.4282H2.42859V16.9997ZM4.85716 16.9997H7.28573V19.4282H4.85716V16.9997ZM7.28573 16.9997H9.7143V19.4282H7.28573V16.9997ZM9.7143 16.9997H12.1429V19.4282H9.7143V16.9997ZM12.1429 16.9997H14.5714V19.4282H12.1429V16.9997ZM14.5714 16.9997H17V19.4282H14.5714V16.9997ZM17 16.9997H19.4286V19.4282H17V16.9997ZM21.8572 16.9997H24.2857V19.4282H21.8572V16.9997ZM26.7143 16.9997H29.1429V19.4282H26.7143V16.9997ZM31.5714 16.9997H34V19.4282H31.5714V16.9997ZM36.4286 16.9997H38.8572V19.4282H36.4286V16.9997ZM41.2857 16.9997H43.7143V19.4282H41.2857V16.9997ZM46.1429 16.9997H48.5714V19.4282H46.1429V16.9997ZM51 16.9997H53.4286V19.4282H51V16.9997ZM55.8572 16.9997H58.2857V19.4282H55.8572V16.9997ZM60.7143 16.9997H63.1429V19.4282H60.7143V16.9997ZM65.5714 16.9997H68V19.4282H65.5714V16.9997ZM68 16.9997H70.4286V19.4282H68V16.9997ZM70.4286 16.9997H72.8572V19.4282H70.4286V16.9997ZM72.8572 16.9997H75.2857V19.4282H72.8572V16.9997ZM75.2857 16.9997H77.7143V19.4282H75.2857V16.9997ZM77.7143 16.9997H80.1429V19.4282H77.7143V16.9997ZM80.1429 16.9997H82.5714V19.4282H80.1429V16.9997ZM21.8572 19.4282H24.2857V21.8568H21.8572V19.4282ZM24.2857 19.4282H26.7143V21.8568H24.2857V19.4282ZM31.5714 19.4282H34V21.8568H31.5714V19.4282ZM38.8572 19.4282H41.2857V21.8568H38.8572V19.4282ZM41.2857 19.4282H43.7143V21.8568H41.2857V19.4282ZM43.7143 19.4282H46.1429V21.8568H43.7143V19.4282ZM46.1429 19.4282H48.5714V21.8568H46.1429V19.4282ZM48.5714 19.4282H51V21.8568H48.5714V19.4282ZM51 19.4282H53.4286V21.8568H51V19.4282ZM53.4286 19.4282H55.8572V21.8568H53.4286V19.4282ZM55.8572 19.4282H58.2857V21.8568H55.8572V19.4282ZM60.7143 19.4282H63.1429V21.8568H60.7143V19.4282ZM4.85716 21.8568H7.28573V24.2854H4.85716V21.8568ZM9.7143 21.8568H12.1429V24.2854H9.7143V21.8568ZM14.5714 21.8568H17V24.2854H14.5714V21.8568ZM17 21.8568H19.4286V24.2854H17V21.8568ZM19.4286 21.8568H21.8572V24.2854H19.4286V21.8568ZM21.8572 21.8568H24.2857V24.2854H21.8572V21.8568ZM38.8572 21.8568H41.2857V24.2854H38.8572V21.8568ZM41.2857 21.8568H43.7143V24.2854H41.2857V21.8568ZM48.5714 21.8568H51V24.2854H48.5714V21.8568ZM53.4286 21.8568H55.8572V24.2854H53.4286V21.8568ZM60.7143 21.8568H63.1429V24.2854H60.7143V21.8568ZM63.1429 21.8568H65.5714V24.2854H63.1429V21.8568ZM65.5714 21.8568H68V24.2854H65.5714V21.8568ZM68 21.8568H70.4286V24.2854H68V21.8568ZM72.8572 21.8568H75.2857V24.2854H72.8572V21.8568ZM75.2857 21.8568H77.7143V24.2854H75.2857V21.8568ZM80.1429 21.8568H82.5714V24.2854H80.1429V21.8568ZM7.28573 24.2854H9.7143V26.7139H7.28573V24.2854ZM9.7143 24.2854H12.1429V26.7139H9.7143V24.2854ZM21.8572 24.2854H24.2857V26.7139H21.8572V24.2854ZM26.7143 24.2854H29.1429V26.7139H26.7143V24.2854ZM29.1429 24.2854H31.5714V26.7139H29.1429V24.2854ZM34 24.2854H36.4286V26.7139H34V24.2854ZM38.8572 24.2854H41.2857V26.7139H38.8572V24.2854ZM41.2857 24.2854H43.7143V26.7139H41.2857V24.2854ZM46.1429 24.2854H48.5714V26.7139H46.1429V24.2854ZM51 24.2854H53.4286V26.7139H51V24.2854ZM55.8572 24.2854H58.2857V26.7139H55.8572V24.2854ZM60.7143 24.2854H63.1429V26.7139H60.7143V24.2854ZM63.1429 24.2854H65.5714V26.7139H63.1429V24.2854ZM65.5714 24.2854H68V26.7139H65.5714V24.2854ZM68 24.2854H70.4286V26.7139H68V24.2854ZM77.7143 24.2854H80.1429V26.7139H77.7143V24.2854ZM80.1429 24.2854H82.5714V26.7139H80.1429V24.2854ZM9.7143 26.7139H12.1429V29.1425H9.7143V26.7139ZM17 26.7139H19.4286V29.1425H17V26.7139ZM21.8572 26.7139H24.2857V29.1425H21.8572V26.7139ZM24.2857 26.7139H26.7143V29.1425H24.2857V26.7139ZM26.7143 26.7139H29.1429V29.1425H26.7143V26.7139ZM31.5714 26.7139H34V29.1425H31.5714V26.7139ZM34 26.7139H36.4286V29.1425H34V26.7139ZM41.2857 26.7139H43.7143V29.1425H41.2857V26.7139ZM43.7143 26.7139H46.1429V29.1425H43.7143V26.7139ZM48.5714 26.7139H51V29.1425H48.5714V26.7139ZM53.4286 26.7139H55.8572V29.1425H53.4286V26.7139ZM55.8572 26.7139H58.2857V29.1425H55.8572V26.7139ZM60.7143 26.7139H63.1429V29.1425H60.7143V26.7139ZM65.5714 26.7139H68V29.1425H65.5714V26.7139ZM68 26.7139H70.4286V29.1425H68V26.7139ZM70.4286 26.7139H72.8572V29.1425H70.4286V26.7139ZM75.2857 26.7139H77.7143V29.1425H75.2857V26.7139ZM80.1429 26.7139H82.5714V29.1425H80.1429V26.7139ZM4.85716 29.1425H7.28573V31.5711H4.85716V29.1425ZM9.7143 29.1425H12.1429V31.5711H9.7143V29.1425ZM12.1429 29.1425H14.5714V31.5711H12.1429V29.1425ZM14.5714 29.1425H17V31.5711H14.5714V29.1425ZM19.4286 29.1425H21.8572V31.5711H19.4286V29.1425ZM24.2857 29.1425H26.7143V31.5711H24.2857V29.1425ZM26.7143 29.1425H29.1429V31.5711H26.7143V29.1425ZM31.5714 29.1425H34V31.5711H31.5714V29.1425ZM38.8572 29.1425H41.2857V31.5711H38.8572V29.1425ZM43.7143 29.1425H46.1429V31.5711H43.7143V29.1425ZM58.2857 29.1425H60.7143V31.5711H58.2857V29.1425ZM60.7143 29.1425H63.1429V31.5711H60.7143V29.1425ZM63.1429 29.1425H65.5714V31.5711H63.1429V29.1425ZM65.5714 29.1425H68V31.5711H65.5714V29.1425ZM70.4286 29.1425H72.8572V31.5711H70.4286V29.1425ZM72.8572 29.1425H75.2857V31.5711H72.8572V29.1425ZM2.42859 31.5711H4.85716V33.9997H2.42859V31.5711ZM4.85716 31.5711H7.28573V33.9997H4.85716V31.5711ZM7.28573 31.5711H9.7143V33.9997H7.28573V31.5711ZM12.1429 31.5711H14.5714V33.9997H12.1429V31.5711ZM17 31.5711H19.4286V33.9997H17V31.5711ZM36.4286 31.5711H38.8572V33.9997H36.4286V31.5711ZM41.2857 31.5711H43.7143V33.9997H41.2857V31.5711ZM48.5714 31.5711H51V33.9997H48.5714V31.5711ZM58.2857 31.5711H60.7143V33.9997H58.2857V31.5711ZM60.7143 31.5711H63.1429V33.9997H60.7143V31.5711ZM63.1429 31.5711H65.5714V33.9997H63.1429V31.5711ZM65.5714 31.5711H68V33.9997H65.5714V31.5711ZM68 31.5711H70.4286V33.9997H68V31.5711ZM72.8572 31.5711H75.2857V33.9997H72.8572V31.5711ZM77.7143 31.5711H80.1429V33.9997H77.7143V31.5711ZM4.85716 33.9997H7.28573V36.4282H4.85716V33.9997ZM7.28573 33.9997H9.7143V36.4282H7.28573V33.9997ZM9.7143 33.9997H12.1429V36.4282H9.7143V33.9997ZM12.1429 33.9997H14.5714V36.4282H12.1429V33.9997ZM21.8572 33.9997H24.2857V36.4282H21.8572V33.9997ZM24.2857 33.9997H26.7143V36.4282H24.2857V33.9997ZM26.7143 33.9997H29.1429V36.4282H26.7143V33.9997ZM29.1429 33.9997H31.5714V36.4282H29.1429V33.9997ZM31.5714 33.9997H34V36.4282H31.5714V33.9997ZM34 33.9997H36.4286V36.4282H34V33.9997ZM36.4286 33.9997H38.8572V36.4282H36.4286V33.9997ZM38.8572 33.9997H41.2857V36.4282H38.8572V33.9997ZM43.7143 33.9997H46.1429V36.4282H43.7143V33.9997ZM53.4286 33.9997H55.8572V36.4282H53.4286V33.9997ZM55.8572 33.9997H58.2857V36.4282H55.8572V33.9997ZM58.2857 33.9997H60.7143V36.4282H58.2857V33.9997ZM65.5714 33.9997H68V36.4282H65.5714V33.9997ZM70.4286 33.9997H72.8572V36.4282H70.4286V33.9997ZM72.8572 33.9997H75.2857V36.4282H72.8572V33.9997ZM77.7143 33.9997H80.1429V36.4282H77.7143V33.9997ZM80.1429 33.9997H82.5714V36.4282H80.1429V33.9997ZM2.42859 36.4282H4.85716V38.8568H2.42859V36.4282ZM4.85716 36.4282H7.28573V38.8568H4.85716V36.4282ZM7.28573 36.4282H9.7143V38.8568H7.28573V36.4282ZM14.5714 36.4282H17V38.8568H14.5714V36.4282ZM17 36.4282H19.4286V38.8568H17V36.4282ZM21.8572 36.4282H24.2857V38.8568H21.8572V36.4282ZM29.1429 36.4282H31.5714V38.8568H29.1429V36.4282ZM31.5714 36.4282H34V38.8568H31.5714V36.4282ZM38.8572 36.4282H41.2857V38.8568H38.8572V36.4282ZM41.2857 36.4282H43.7143V38.8568H41.2857V36.4282ZM43.7143 36.4282H46.1429V38.8568H43.7143V36.4282ZM46.1429 36.4282H48.5714V38.8568H46.1429V36.4282ZM51 36.4282H53.4286V38.8568H51V36.4282ZM55.8572 36.4282H58.2857V38.8568H55.8572V36.4282ZM58.2857 36.4282H60.7143V38.8568H58.2857V36.4282ZM63.1429 36.4282H65.5714V38.8568H63.1429V36.4282ZM65.5714 36.4282H68V38.8568H65.5714V36.4282ZM68 36.4282H70.4286V38.8568H68V36.4282ZM75.2857 36.4282H77.7143V38.8568H75.2857V36.4282ZM77.7143 36.4282H80.1429V38.8568H77.7143V36.4282ZM4.85716 38.8568H7.28573V41.2854H4.85716V38.8568ZM7.28573 38.8568H9.7143V41.2854H7.28573V38.8568ZM9.7143 38.8568H12.1429V41.2854H9.7143V38.8568ZM14.5714 38.8568H17V41.2854H14.5714V38.8568ZM21.8572 38.8568H24.2857V41.2854H21.8572V38.8568ZM24.2857 38.8568H26.7143V41.2854H24.2857V38.8568ZM26.7143 38.8568H29.1429V41.2854H26.7143V38.8568ZM31.5714 38.8568H34V41.2854H31.5714V38.8568ZM41.2857 38.8568H43.7143V41.2854H41.2857V38.8568ZM43.7143 38.8568H46.1429V41.2854H43.7143V38.8568ZM46.1429 38.8568H48.5714V41.2854H46.1429V38.8568ZM48.5714 38.8568H51V41.2854H48.5714V38.8568ZM53.4286 38.8568H55.8572V41.2854H53.4286V38.8568ZM60.7143 38.8568H63.1429V41.2854H60.7143V38.8568ZM65.5714 38.8568H68V41.2854H65.5714V38.8568ZM68 38.8568H70.4286V41.2854H68V38.8568ZM77.7143 38.8568H80.1429V41.2854H77.7143V38.8568ZM2.42859 41.2854H4.85716V43.7139H2.42859V41.2854ZM9.7143 41.2854H12.1429V43.7139H9.7143V41.2854ZM12.1429 41.2854H14.5714V43.7139H12.1429V41.2854ZM14.5714 41.2854H17V43.7139H14.5714V41.2854ZM17 41.2854H19.4286V43.7139H17V41.2854ZM19.4286 41.2854H21.8572V43.7139H19.4286V41.2854ZM21.8572 41.2854H24.2857V43.7139H21.8572V41.2854ZM24.2857 41.2854H26.7143V43.7139H24.2857V41.2854ZM26.7143 41.2854H29.1429V43.7139H26.7143V41.2854ZM29.1429 41.2854H31.5714V43.7139H29.1429V41.2854ZM31.5714 41.2854H34V43.7139H31.5714V41.2854ZM34 41.2854H36.4286V43.7139H34V41.2854ZM41.2857 41.2854H43.7143V43.7139H41.2857V41.2854ZM46.1429 41.2854H48.5714V43.7139H46.1429V41.2854ZM48.5714 41.2854H51V43.7139H48.5714V41.2854ZM51 41.2854H53.4286V43.7139H51V41.2854ZM53.4286 41.2854H55.8572V43.7139H53.4286V41.2854ZM55.8572 41.2854H58.2857V43.7139H55.8572V41.2854ZM58.2857 41.2854H60.7143V43.7139H58.2857V41.2854ZM60.7143 41.2854H63.1429V43.7139H60.7143V41.2854ZM65.5714 41.2854H68V43.7139H65.5714V41.2854ZM70.4286 41.2854H72.8572V43.7139H70.4286V41.2854ZM72.8572 41.2854H75.2857V43.7139H72.8572V41.2854ZM77.7143 41.2854H80.1429V43.7139H77.7143V41.2854ZM4.85716 43.7139H7.28573V46.1425H4.85716V43.7139ZM7.28573 43.7139H9.7143V46.1425H7.28573V43.7139ZM9.7143 43.7139H12.1429V46.1425H9.7143V43.7139ZM12.1429 43.7139H14.5714V46.1425H12.1429V43.7139ZM14.5714 43.7139H17V46.1425H14.5714V43.7139ZM21.8572 43.7139H24.2857V46.1425H21.8572V43.7139ZM26.7143 43.7139H29.1429V46.1425H26.7143V43.7139ZM31.5714 43.7139H34V46.1425H31.5714V43.7139ZM36.4286 43.7139H38.8572V46.1425H36.4286V43.7139ZM53.4286 43.7139H55.8572V46.1425H53.4286V43.7139ZM58.2857 43.7139H60.7143V46.1425H58.2857V43.7139ZM68 43.7139H70.4286V46.1425H68V43.7139ZM72.8572 43.7139H75.2857V46.1425H72.8572V43.7139ZM77.7143 43.7139H80.1429V46.1425H77.7143V43.7139ZM2.42859 46.1425H4.85716V48.5711H2.42859V46.1425ZM4.85716 46.1425H7.28573V48.5711H4.85716V46.1425ZM9.7143 46.1425H12.1429V48.5711H9.7143V46.1425ZM17 46.1425H19.4286V48.5711H17V46.1425ZM21.8572 46.1425H24.2857V48.5711H21.8572V46.1425ZM24.2857 46.1425H26.7143V48.5711H24.2857V46.1425ZM26.7143 46.1425H29.1429V48.5711H26.7143V46.1425ZM29.1429 46.1425H31.5714V48.5711H29.1429V46.1425ZM41.2857 46.1425H43.7143V48.5711H41.2857V46.1425ZM55.8572 46.1425H58.2857V48.5711H55.8572V46.1425ZM63.1429 46.1425H65.5714V48.5711H63.1429V46.1425ZM75.2857 46.1425H77.7143V48.5711H75.2857V46.1425ZM80.1429 46.1425H82.5714V48.5711H80.1429V46.1425ZM7.28573 48.5711H9.7143V50.9997H7.28573V48.5711ZM29.1429 48.5711H31.5714V50.9997H29.1429V48.5711ZM31.5714 48.5711H34V50.9997H31.5714V48.5711ZM36.4286 48.5711H38.8572V50.9997H36.4286V48.5711ZM38.8572 48.5711H41.2857V50.9997H38.8572V48.5711ZM48.5714 48.5711H51V50.9997H48.5714V48.5711ZM53.4286 48.5711H55.8572V50.9997H53.4286V48.5711ZM60.7143 48.5711H63.1429V50.9997H60.7143V48.5711ZM63.1429 48.5711H65.5714V50.9997H63.1429V48.5711ZM65.5714 48.5711H68V50.9997H65.5714V48.5711ZM68 48.5711H70.4286V50.9997H68V48.5711ZM77.7143 48.5711H80.1429V50.9997H77.7143V48.5711ZM4.85716 50.9997H7.28573V53.4282H4.85716V50.9997ZM9.7143 50.9997H12.1429V53.4282H9.7143V50.9997ZM12.1429 50.9997H14.5714V53.4282H12.1429V50.9997ZM17 50.9997H19.4286V53.4282H17V50.9997ZM19.4286 50.9997H21.8572V53.4282H19.4286V50.9997ZM21.8572 50.9997H24.2857V53.4282H21.8572V50.9997ZM24.2857 50.9997H26.7143V53.4282H24.2857V50.9997ZM34 50.9997H36.4286V53.4282H34V50.9997ZM55.8572 50.9997H58.2857V53.4282H55.8572V50.9997ZM58.2857 50.9997H60.7143V53.4282H58.2857V50.9997ZM60.7143 50.9997H63.1429V53.4282H60.7143V50.9997ZM63.1429 50.9997H65.5714V53.4282H63.1429V50.9997ZM68 50.9997H70.4286V53.4282H68V50.9997ZM77.7143 50.9997H80.1429V53.4282H77.7143V50.9997ZM4.85716 53.4282H7.28573V55.8568H4.85716V53.4282ZM7.28573 53.4282H9.7143V55.8568H7.28573V53.4282ZM21.8572 53.4282H24.2857V55.8568H21.8572V53.4282ZM36.4286 53.4282H38.8572V55.8568H36.4286V53.4282ZM38.8572 53.4282H41.2857V55.8568H38.8572V53.4282ZM41.2857 53.4282H43.7143V55.8568H41.2857V53.4282ZM46.1429 53.4282H48.5714V55.8568H46.1429V53.4282ZM48.5714 53.4282H51V55.8568H48.5714V53.4282ZM51 53.4282H53.4286V55.8568H51V53.4282ZM55.8572 53.4282H58.2857V55.8568H55.8572V53.4282ZM65.5714 53.4282H68V55.8568H65.5714V53.4282ZM72.8572 53.4282H75.2857V55.8568H72.8572V53.4282ZM77.7143 53.4282H80.1429V55.8568H77.7143V53.4282ZM80.1429 53.4282H82.5714V55.8568H80.1429V53.4282ZM2.42859 55.8568H4.85716V58.2854H2.42859V55.8568ZM4.85716 55.8568H7.28573V58.2854H4.85716V55.8568ZM12.1429 55.8568H14.5714V58.2854H12.1429V55.8568ZM17 55.8568H19.4286V58.2854H17V55.8568ZM21.8572 55.8568H24.2857V58.2854H21.8572V55.8568ZM24.2857 55.8568H26.7143V58.2854H24.2857V55.8568ZM26.7143 55.8568H29.1429V58.2854H26.7143V55.8568ZM31.5714 55.8568H34V58.2854H31.5714V55.8568ZM36.4286 55.8568H38.8572V58.2854H36.4286V55.8568ZM38.8572 55.8568H41.2857V58.2854H38.8572V55.8568ZM43.7143 55.8568H46.1429V58.2854H43.7143V55.8568ZM51 55.8568H53.4286V58.2854H51V55.8568ZM55.8572 55.8568H58.2857V58.2854H55.8572V55.8568ZM65.5714 55.8568H68V58.2854H65.5714V55.8568ZM68 55.8568H70.4286V58.2854H68V55.8568ZM75.2857 55.8568H77.7143V58.2854H75.2857V55.8568ZM80.1429 55.8568H82.5714V58.2854H80.1429V55.8568ZM4.85716 58.2854H7.28573V60.7139H4.85716V58.2854ZM7.28573 58.2854H9.7143V60.7139H7.28573V58.2854ZM9.7143 58.2854H12.1429V60.7139H9.7143V58.2854ZM12.1429 58.2854H14.5714V60.7139H12.1429V58.2854ZM21.8572 58.2854H24.2857V60.7139H21.8572V58.2854ZM26.7143 58.2854H29.1429V60.7139H26.7143V58.2854ZM29.1429 58.2854H31.5714V60.7139H29.1429V58.2854ZM31.5714 58.2854H34V60.7139H31.5714V58.2854ZM38.8572 58.2854H41.2857V60.7139H38.8572V58.2854ZM41.2857 58.2854H43.7143V60.7139H41.2857V58.2854ZM53.4286 58.2854H55.8572V60.7139H53.4286V58.2854ZM60.7143 58.2854H63.1429V60.7139H60.7143V58.2854ZM70.4286 58.2854H72.8572V60.7139H70.4286V58.2854ZM72.8572 58.2854H75.2857V60.7139H72.8572V58.2854ZM2.42859 60.7139H4.85716V63.1425H2.42859V60.7139ZM7.28573 60.7139H9.7143V63.1425H7.28573V60.7139ZM9.7143 60.7139H12.1429V63.1425H9.7143V60.7139ZM17 60.7139H19.4286V63.1425H17V60.7139ZM19.4286 60.7139H21.8572V63.1425H19.4286V60.7139ZM24.2857 60.7139H26.7143V63.1425H24.2857V60.7139ZM26.7143 60.7139H29.1429V63.1425H26.7143V60.7139ZM29.1429 60.7139H31.5714V63.1425H29.1429V60.7139ZM31.5714 60.7139H34V63.1425H31.5714V60.7139ZM34 60.7139H36.4286V63.1425H34V60.7139ZM36.4286 60.7139H38.8572V63.1425H36.4286V60.7139ZM38.8572 60.7139H41.2857V63.1425H38.8572V60.7139ZM46.1429 60.7139H48.5714V63.1425H46.1429V60.7139ZM48.5714 60.7139H51V63.1425H48.5714V60.7139ZM51 60.7139H53.4286V63.1425H51V60.7139ZM53.4286 60.7139H55.8572V63.1425H53.4286V60.7139ZM60.7143 60.7139H63.1429V63.1425H60.7143V60.7139ZM63.1429 60.7139H65.5714V63.1425H63.1429V60.7139ZM65.5714 60.7139H68V63.1425H65.5714V60.7139ZM68 60.7139H70.4286V63.1425H68V60.7139ZM70.4286 60.7139H72.8572V63.1425H70.4286V60.7139ZM72.8572 60.7139H75.2857V63.1425H72.8572V60.7139ZM80.1429 60.7139H82.5714V63.1425H80.1429V60.7139ZM21.8572 63.1425H24.2857V65.5711H21.8572V63.1425ZM24.2857 63.1425H26.7143V65.5711H24.2857V63.1425ZM26.7143 63.1425H29.1429V65.5711H26.7143V63.1425ZM31.5714 63.1425H34V65.5711H31.5714V63.1425ZM38.8572 63.1425H41.2857V65.5711H38.8572V63.1425ZM41.2857 63.1425H43.7143V65.5711H41.2857V63.1425ZM43.7143 63.1425H46.1429V65.5711H43.7143V63.1425ZM48.5714 63.1425H51V65.5711H48.5714V63.1425ZM51 63.1425H53.4286V65.5711H51V63.1425ZM55.8572 63.1425H58.2857V65.5711H55.8572V63.1425ZM60.7143 63.1425H63.1429V65.5711H60.7143V63.1425ZM70.4286 63.1425H72.8572V65.5711H70.4286V63.1425ZM72.8572 63.1425H75.2857V65.5711H72.8572V63.1425ZM77.7143 63.1425H80.1429V65.5711H77.7143V63.1425ZM80.1429 63.1425H82.5714V65.5711H80.1429V63.1425ZM2.42859 65.5711H4.85716V67.9997H2.42859V65.5711ZM4.85716 65.5711H7.28573V67.9997H4.85716V65.5711ZM7.28573 65.5711H9.7143V67.9997H7.28573V65.5711ZM9.7143 65.5711H12.1429V67.9997H9.7143V65.5711ZM12.1429 65.5711H14.5714V67.9997H12.1429V65.5711ZM14.5714 65.5711H17V67.9997H14.5714V65.5711ZM17 65.5711H19.4286V67.9997H17V65.5711ZM21.8572 65.5711H24.2857V67.9997H21.8572V65.5711ZM26.7143 65.5711H29.1429V67.9997H26.7143V65.5711ZM29.1429 65.5711H31.5714V67.9997H29.1429V65.5711ZM34 65.5711H36.4286V67.9997H34V65.5711ZM41.2857 65.5711H43.7143V67.9997H41.2857V65.5711ZM46.1429 65.5711H48.5714V67.9997H46.1429V65.5711ZM53.4286 65.5711H55.8572V67.9997H53.4286V65.5711ZM60.7143 65.5711H63.1429V67.9997H60.7143V65.5711ZM65.5714 65.5711H68V67.9997H65.5714V65.5711ZM70.4286 65.5711H72.8572V67.9997H70.4286V65.5711ZM72.8572 65.5711H75.2857V67.9997H72.8572V65.5711ZM75.2857 65.5711H77.7143V67.9997H75.2857V65.5711ZM77.7143 65.5711H80.1429V67.9997H77.7143V65.5711ZM2.42859 67.9997H4.85716V70.4282H2.42859V67.9997ZM17 67.9997H19.4286V70.4282H17V67.9997ZM21.8572 67.9997H24.2857V70.4282H21.8572V67.9997ZM24.2857 67.9997H26.7143V70.4282H24.2857V67.9997ZM26.7143 67.9997H29.1429V70.4282H26.7143V67.9997ZM43.7143 67.9997H46.1429V70.4282H43.7143V67.9997ZM51 67.9997H53.4286V70.4282H51V67.9997ZM60.7143 67.9997H63.1429V70.4282H60.7143V67.9997ZM70.4286 67.9997H72.8572V70.4282H70.4286V67.9997ZM77.7143 67.9997H80.1429V70.4282H77.7143V67.9997ZM80.1429 67.9997H82.5714V70.4282H80.1429V67.9997ZM2.42859 70.4282H4.85716V72.8568H2.42859V70.4282ZM7.28573 70.4282H9.7143V72.8568H7.28573V70.4282ZM9.7143 70.4282H12.1429V72.8568H9.7143V70.4282ZM12.1429 70.4282H14.5714V72.8568H12.1429V70.4282ZM17 70.4282H19.4286V72.8568H17V70.4282ZM24.2857 70.4282H26.7143V72.8568H24.2857V70.4282ZM26.7143 70.4282H29.1429V72.8568H26.7143V70.4282ZM29.1429 70.4282H31.5714V72.8568H29.1429V70.4282ZM31.5714 70.4282H34V72.8568H31.5714V70.4282ZM34 70.4282H36.4286V72.8568H34V70.4282ZM38.8572 70.4282H41.2857V72.8568H38.8572V70.4282ZM43.7143 70.4282H46.1429V72.8568H43.7143V70.4282ZM55.8572 70.4282H58.2857V72.8568H55.8572V70.4282ZM60.7143 70.4282H63.1429V72.8568H60.7143V70.4282ZM63.1429 70.4282H65.5714V72.8568H63.1429V70.4282ZM65.5714 70.4282H68V72.8568H65.5714V70.4282ZM68 70.4282H70.4286V72.8568H68V70.4282ZM70.4286 70.4282H72.8572V72.8568H70.4286V70.4282ZM72.8572 70.4282H75.2857V72.8568H72.8572V70.4282ZM77.7143 70.4282H80.1429V72.8568H77.7143V70.4282ZM80.1429 70.4282H82.5714V72.8568H80.1429V70.4282ZM2.42859 72.8568H4.85716V75.2854H2.42859V72.8568ZM7.28573 72.8568H9.7143V75.2854H7.28573V72.8568ZM9.7143 72.8568H12.1429V75.2854H9.7143V72.8568ZM12.1429 72.8568H14.5714V75.2854H12.1429V72.8568ZM17 72.8568H19.4286V75.2854H17V72.8568ZM21.8572 72.8568H24.2857V75.2854H21.8572V72.8568ZM41.2857 72.8568H43.7143V75.2854H41.2857V72.8568ZM46.1429 72.8568H48.5714V75.2854H46.1429V72.8568ZM48.5714 72.8568H51V75.2854H48.5714V72.8568ZM51 72.8568H53.4286V75.2854H51V72.8568ZM53.4286 72.8568H55.8572V75.2854H53.4286V72.8568ZM58.2857 72.8568H60.7143V75.2854H58.2857V72.8568ZM60.7143 72.8568H63.1429V75.2854H60.7143V72.8568ZM65.5714 72.8568H68V75.2854H65.5714V72.8568ZM70.4286 72.8568H72.8572V75.2854H70.4286V72.8568ZM77.7143 72.8568H80.1429V75.2854H77.7143V72.8568ZM2.42859 75.2854H4.85716V77.7139H2.42859V75.2854ZM7.28573 75.2854H9.7143V77.7139H7.28573V75.2854ZM9.7143 75.2854H12.1429V77.7139H9.7143V75.2854ZM12.1429 75.2854H14.5714V77.7139H12.1429V75.2854ZM17 75.2854H19.4286V77.7139H17V75.2854ZM26.7143 75.2854H29.1429V77.7139H26.7143V75.2854ZM29.1429 75.2854H31.5714V77.7139H29.1429V75.2854ZM31.5714 75.2854H34V77.7139H31.5714V75.2854ZM34 75.2854H36.4286V77.7139H34V75.2854ZM41.2857 75.2854H43.7143V77.7139H41.2857V75.2854ZM46.1429 75.2854H48.5714V77.7139H46.1429V75.2854ZM58.2857 75.2854H60.7143V77.7139H58.2857V75.2854ZM60.7143 75.2854H63.1429V77.7139H60.7143V75.2854ZM63.1429 75.2854H65.5714V77.7139H63.1429V75.2854ZM70.4286 75.2854H72.8572V77.7139H70.4286V75.2854ZM75.2857 75.2854H77.7143V77.7139H75.2857V75.2854ZM80.1429 75.2854H82.5714V77.7139H80.1429V75.2854ZM2.42859 77.7139H4.85716V80.1425H2.42859V77.7139ZM17 77.7139H19.4286V80.1425H17V77.7139ZM21.8572 77.7139H24.2857V80.1425H21.8572V77.7139ZM26.7143 77.7139H29.1429V80.1425H26.7143V77.7139ZM29.1429 77.7139H31.5714V80.1425H29.1429V77.7139ZM41.2857 77.7139H43.7143V80.1425H41.2857V77.7139ZM53.4286 77.7139H55.8572V80.1425H53.4286V77.7139ZM58.2857 77.7139H60.7143V80.1425H58.2857V77.7139ZM60.7143 77.7139H63.1429V80.1425H60.7143V77.7139ZM72.8572 77.7139H75.2857V80.1425H72.8572V77.7139ZM2.42859 80.1425H4.85716V82.5711H2.42859V80.1425ZM4.85716 80.1425H7.28573V82.5711H4.85716V80.1425ZM7.28573 80.1425H9.7143V82.5711H7.28573V80.1425ZM9.7143 80.1425H12.1429V82.5711H9.7143V80.1425ZM12.1429 80.1425H14.5714V82.5711H12.1429V80.1425ZM14.5714 80.1425H17V82.5711H14.5714V80.1425ZM17 80.1425H19.4286V82.5711H17V80.1425ZM26.7143 80.1425H29.1429V82.5711H26.7143V80.1425ZM29.1429 80.1425H31.5714V82.5711H29.1429V80.1425ZM34 80.1425H36.4286V82.5711H34V80.1425ZM41.2857 80.1425H43.7143V82.5711H41.2857V80.1425ZM46.1429 80.1425H48.5714V82.5711H46.1429V80.1425ZM53.4286 80.1425H55.8572V82.5711H53.4286V80.1425ZM55.8572 80.1425H58.2857V82.5711H55.8572V80.1425ZM60.7143 80.1425H63.1429V82.5711H60.7143V80.1425ZM65.5714 80.1425H68V82.5711H65.5714V80.1425ZM70.4286 80.1425H72.8572V82.5711H70.4286V80.1425ZM72.8572 80.1425H75.2857V82.5711H72.8572V80.1425ZM77.7143 80.1425H80.1429V82.5711H77.7143V80.1425Z" fill="black" stroke="black" stroke-width="0.242857"/>
</svg>
