<svg width="36" height="36" viewBox="0 0 36 36" fill="none" xmlns="http://www.w3.org/2000/svg">
<rect width="36" height="36" rx="16" fill="white" fill-opacity="0.4"/>
<path fill-rule="evenodd" clip-rule="evenodd" d="M22.1667 12.1665V11.3332C22.1667 10.4127 21.4205 9.6665 20.5 9.6665H15.5C14.5795 9.6665 13.8333 10.4127 13.8333 11.3332V12.1665H11.3333C10.8731 12.1665 10.5 12.5396 10.5 12.9998C10.5 13.4601 10.8731 13.8332 11.3333 13.8332H12.1667V22.9998C12.1667 24.3806 13.286 25.4998 14.6667 25.4998H21.3333C22.7141 25.4998 23.8333 24.3806 23.8333 22.9998V13.8332H24.6667C25.1269 13.8332 25.5 13.4601 25.5 12.9998C25.5 12.5396 25.1269 12.1665 24.6667 12.1665H22.1667ZM20.5 11.3332H15.5V12.1665H20.5V11.3332ZM22.1667 13.8332H13.8333V22.9998C13.8333 23.4601 14.2064 23.8332 14.6667 23.8332H21.3333C21.7936 23.8332 22.1667 23.4601 22.1667 22.9998V13.8332ZM15.5 15.4998H17.1667V22.1665H15.5V15.4998ZM20.5 15.4998H18.8333V22.1665H20.5V15.4998Z" fill="#171717" fill-opacity="0.8"/>
</svg>
