<svg width="36" height="36" viewBox="0 0 36 36" fill="none" xmlns="http://www.w3.org/2000/svg">
<rect width="36" height="36" rx="16" fill="#DE350B"/>
<path fill-rule="evenodd" clip-rule="evenodd" d="M22.1667 12.1667V11.3334C22.1667 10.4129 21.4205 9.66675 20.5 9.66675H15.5C14.5795 9.66675 13.8333 10.4129 13.8333 11.3334V12.1667H11.3333C10.8731 12.1667 10.5 12.5398 10.5 13.0001C10.5 13.4603 10.8731 13.8334 11.3333 13.8334H12.1667V23.0001C12.1667 24.3808 13.286 25.5001 14.6667 25.5001H21.3333C22.7141 25.5001 23.8333 24.3808 23.8333 23.0001V13.8334H24.6667C25.1269 13.8334 25.5 13.4603 25.5 13.0001C25.5 12.5398 25.1269 12.1667 24.6667 12.1667H22.1667ZM20.5 11.3334H15.5V12.1667H20.5V11.3334ZM22.1667 13.8334H13.8333V23.0001C13.8333 23.4603 14.2064 23.8334 14.6667 23.8334H21.3333C21.7936 23.8334 22.1667 23.4603 22.1667 23.0001V13.8334ZM15.5 15.5001H17.1667V22.1667H15.5V15.5001ZM20.5 15.5001H18.8333V22.1667H20.5V15.5001Z" fill="white"/>
</svg>
